<?xml version="1.0" encoding="utf-8"?>

<!-- Uploaded to: SVG Repo, www.svgrepo.com, Generator: SVG Repo Mixer Tools -->
<svg fill="#000000" height="800px" width="800px" version="1.1" id="Layer_1" xmlns="http://www.w3.org/2000/svg" xmlns:xlink="http://www.w3.org/1999/xlink" 
	 viewBox="0 0 24 24" xml:space="preserve">
<polygon points="17,12 17,13 15,13 15,15 13,15 13,3 11,3 11,15 9,15 9,13 7,13 7,12 5,12 5,15 7,15 7,17 9,17 9,19 10,19 10,20 
	11,20 11,21 13,21 13,20 14,20 14,19 15,19 15,17 17,17 17,15 19,15 19,12 "/>
</svg>